<svg aria-hidden="true" style="position: absolute; width: 0; height: 0; overflow: hidden;" version="1.1" xmlns="http://www.w3.org/2000/svg" xmlns:xlink="http://www.w3.org/1999/xlink">
<defs>
<symbol id="icon-twitter" viewBox="0 0 37 32">
<path d="M11.488 29.737c13.8 0 21.352-11.444 21.352-21.352 0-0.322 0-0.644-0.015-0.966 1.464-1.054 2.737-2.385 3.746-3.893-1.346 0.6-2.795 0.995-4.317 1.185 1.551-0.922 2.737-2.4 3.307-4.156-1.449 0.863-3.059 1.478-4.771 1.815-1.376-1.463-3.322-2.371-5.473-2.371-4.141 0-7.507 3.366-7.507 7.507 0 0.585 0.073 1.156 0.19 1.712-6.234-0.307-11.766-3.307-15.469-7.844-0.644 1.112-1.010 2.4-1.010 3.776 0 2.605 1.332 4.903 3.337 6.249-1.229-0.044-2.385-0.38-3.395-0.937 0 0.029 0 0.059 0 0.102 0 3.629 2.59 6.673 6.015 7.361-0.629 0.176-1.288 0.263-1.976 0.263-0.483 0-0.951-0.044-1.405-0.132 0.951 2.985 3.732 5.151 7.010 5.21-2.576 2.019-5.81 3.219-9.322 3.219-0.6 0-1.2-0.029-1.785-0.102 3.307 2.107 7.259 3.351 11.488 3.351z"></path>
</symbol>
<symbol id="icon-facebook" viewBox="0 0 32 32">
<path d="M30.234 0h-28.469c-0.975 0-1.766 0.79-1.766 1.766v28.469c0 0.975 0.79 1.766 1.766 1.766h15.338v-12.375h-4.165v-4.844h4.165v-3.564c0-4.132 2.527-6.383 6.212-6.383 1.242-0.003 2.483 0.060 3.719 0.188v4.32h-2.538c-2.008 0-2.4 0.949-2.4 2.35v3.084h4.8l-0.623 4.844h-4.204v12.381h8.165c0.975 0 1.766-0.79 1.766-1.766v-28.469c0-0.975-0.79-1.766-1.766-1.766z"></path>
</symbol>
<symbol id="icon-Icon" viewBox="0 0 32 32">
<path fill="#fff" style="fill: var(--color1, #fff)" d="M20.466 23.333l-4.527-3.047-1.826 1.531-0.741-3.259 7.906-6.924-9.48 5.445-4.465-3.222 17.333-5.191-4.2 14.667z"></path>
</symbol>
<symbol id="icon-Group-12" viewBox="0 0 32 32">
<path d="M32 16c0 8.837-7.163 16-16 16s-16-7.163-16-16c0-8.837 7.163-16 16-16s16 7.163 16 16z"></path>
<path fill="none" stroke="#fff" style="stroke: var(--color1, #fff)" stroke-linejoin="miter" stroke-linecap="butt" stroke-miterlimit="4" stroke-width="1.28" d="M6.4 9.6h19.36"></path>
<path fill="none" stroke="#fff" style="stroke: var(--color1, #fff)" stroke-linejoin="miter" stroke-linecap="butt" stroke-miterlimit="4" stroke-width="1.28" d="M6.4 14.72h19.36"></path>
<path fill="none" stroke="#fff" style="stroke: var(--color1, #fff)" stroke-linejoin="miter" stroke-linecap="butt" stroke-miterlimit="4" stroke-width="1.28" d="M6.4 19.84h19.36"></path>
</symbol>
</defs>
</svg>
